<?xml version="1.0" encoding="utf-8"?>
<!-- Generator: Adobe Illustrator 19.2.1, SVG Export Plug-In . SVG Version: 6.00 Build 0)  -->
<svg version="1.1" id="layer" xmlns="http://www.w3.org/2000/svg" xmlns:xlink="http://www.w3.org/1999/xlink" x="0px" y="0px"
	 viewBox="0 0 652 652" style="enable-background:new 0 0 652 652;" xml:space="preserve">
<style type="text/css">
	.st0{fill:#EE3124;}
</style>
<rect x="158.1" y="295.2" class="st0" width="444.2" height="6.6"/>
<path d="M337.2,406.2v-93h28.6c0.2,1.7,0.1,6.6,0.4,7.6c4.1-2.4,14.7-8.7,28.8-8.4h7.3V337c-0.7,1.2-1.3,2.6-1.8,3.9
	c-18.6-4.3-33.2,3-33.3,15v50.3H337.2z"/>
<path class="st0" d="M82.6,291.6c0-10,7.9-18.2,17.6-18.2c9.7,0,17.6,8.2,17.6,18.2c0,10.1-7.9,18.2-17.6,18.2
	C90.5,309.7,82.6,301.6,82.6,291.6"/>
<path d="M183.6,383.2c-12.8,0-23.2-10.7-23.2-24c0-13.2,10.4-24,23.2-24c12.8,0,23.2,10.7,23.2,24
	C206.8,372.4,196.4,383.2,183.6,383.2 M183.8,308.2c-7.4,0-20.4,2.3-25.8,9.8l0-24.7c0-33.4-26.2-60.4-58.5-60.4
	c-32.3,0-58.4,27-58.4,60.4l-0.1,18.4H20.3v27.5h20.8v67h32.9l0-66.9h13.7v66.9h30.8v-94.5H71.9l0-18.4c0-15.8,12.4-28.6,27.7-28.6
	c15.3,0,27.7,12.8,27.7,28.6l0.1,112.9h29.5c-0.4-7.7-1.6-9.4-1.5-9.8c6.1,10.5,22.3,11.7,30.6,11.7c1.5,0,8-0.2,11.5-0.9
	c9.6-2.1,22-9.2,29.5-21.6c5.8-9.5,8.1-17.8,8.1-26.5C235.1,328.8,208.2,308.2,183.8,308.2"/>
<path d="M609.4,319.2h1.7c1.2,0,2.2-0.1,2.2-1.6c0-1.3-1.1-1.5-2.1-1.5h-1.7V319.2z M607.5,314.6h3.9c2.5,0,3.9,0.9,3.9,3.2
	c0,1.9-1,2.8-2.7,2.9l2.8,4.7h-2l-2.7-4.6h-1.2v4.6h-1.9V314.6z M618,320c0-4.4-3.1-7.7-7-7.7c-3.8,0-7,3.3-7,7.7
	c0,4.5,3.1,7.7,7,7.7C614.9,327.7,618,324.5,618,320 M601.8,320c0-5.3,4.1-9.5,9.2-9.5c5.1,0,9.2,4.3,9.2,9.5c0,5.2-4.1,9.5-9.2,9.5
	C606,329.6,601.8,325.3,601.8,320"/>
<path d="M307.8,346.3c-4.3-7.7-14.8-13.3-21.3-13.3c-10.7,0-17.1,5.6-23,13.3H307.8z M235.1,362.1c0-0.9,0.1-1.8,0.1-2.7
	c0-1.2,0-2.4-0.1-3.6c1.7-29.5,30.7-47.3,51.9-47.3c21.8,0,49.6,19.6,49.6,49c0,2.8,0.4,8.9-0.1,13l-71.1,0.6
	c4.9,8.3,12.7,10.1,17.7,10.6c3.9,0.4,10.2,0.4,14.3-1.5c3.3-1.5,6.2-3.5,7.5-6H334c-10.8,27.7-31,33.6-48.9,33.6
	C263.5,407.7,237.1,391.2,235.1,362.1"/>
<path class="st0" d="M570.6,406.4v-51.1c-0.1-5.1,0.7-13.1-5.3-17.1c-2.2-1.5-6.2-3.1-10.9-3c-4.6,0.2-16.8,2.9-16.9,11.1v60.1
	h-31.9V312h29.9c-0.4,2.6-0.4,4.1-0.2,5.7c9-7.5,15.7-9.1,24.3-9.1c21.5,0,42.5,17.9,42.5,37.1l0,60.7H570.6z"/>
<path class="st0" d="M450.3,381.1c-13.5,0-24.4-10.3-24.4-23.1c0-12.7,10.9-23,24.4-23c13.5,0,24.4,10.3,24.4,23
	C474.7,370.8,463.7,381.1,450.3,381.1 M450.2,308.4c-29.1,0-52.7,22.3-52.7,49.7s23.7,49.7,52.7,49.7c29.1,0,52.7-22.3,52.7-49.7
	S479.3,308.4,450.2,308.4"/>
</svg>
