<?xml version="1.0" encoding="utf-8"?>
<!-- Generator: Adobe Illustrator 24.3.0, SVG Export Plug-In . SVG Version: 6.00 Build 0)  -->
<svg version="1.1" id="Capa_1" xmlns="http://www.w3.org/2000/svg" xmlns:xlink="http://www.w3.org/1999/xlink" x="0px" y="0px"
	 viewBox="0 0 1190 841" style="enable-background:new 0 0 1190 841;" xml:space="preserve">
<style type="text/css">
	.st0{fill-rule:evenodd;clip-rule:evenodd;}
	.st1{fill-rule:evenodd;clip-rule:evenodd;fill:#898E23;}
	.st2{fill:#898E23;}
	.st3{fill:none;stroke:#898E23;stroke-width:0.7056;stroke-miterlimit:3.8636;}
	.st4{fill:none;stroke:#898E23;stroke-miterlimit:3.8637;}
</style>
<path class="st0" d="M199.7,632.9h9.6V453h-9.6v79.4h-0.5c-6.8-20.4-26.7-32-47.9-32c-39.1,0-57.7,29.7-57.7,68
	c0,35.8,16.9,67.5,55.9,67.5c23.2,0,39.1-10.3,49.6-30.7h0.5V632.9z M151.6,627.6c-33.3,0-48.4-28.7-48.4-59.2
	c0-31.2,13.9-59.7,48.1-59.7c33.3,0,48.1,29.5,48.1,59.7C199.5,598.1,184.4,627.6,151.6,627.6z"/>
<path class="st0" d="M243.5,561.1c2-25.7,18.9-52.4,47.6-52.4c29.7,0,46.9,25.2,47.4,52.4H243.5z M348.1,569.4
	c1.8-37-16.4-69-56.9-69c-39.1,0-57.7,34.5-57.2,70c-0.5,35.8,19.4,65.5,57.2,65.5c30.7,0,50.9-16.6,55.9-46.9h-9.6
	c-4.5,23.9-21.9,38.6-46.4,38.6c-32,0-48.1-27.7-47.6-58.2H348.1z"/>
<path class="st0" d="M477.6,543.4c-2.8-29.5-25.4-43.1-53.4-43.1c-38.3,0-59.5,30.5-59.5,66.5c0,36,17.4,69,59.5,69
	c28,0,50.4-17.6,54.7-48.6h-9.6c-3.3,23.7-20.9,40.3-45.1,40.3c-33.5,0-49.9-25.7-49.9-60.7c0-29.5,17.4-58.2,49.9-58.2
	c23.4,0,42.1,11.8,43.8,34.8H477.6z"/>
<path class="st0" d="M504.7,568.1c0-31,17.4-59.5,49.9-59.5c32.5,0,49.9,28.5,49.9,59.5c0,31-17.4,59.5-49.9,59.5
	C522.1,627.6,504.7,599.1,504.7,568.1z M495.1,568.1c0,36.8,21.4,67.8,59.5,67.8c38,0,59.5-31,59.5-67.8c0-36.8-21.4-67.8-59.5-67.8
	C516.6,500.3,495.1,531.3,495.1,568.1z"/>
<path class="st0" d="M646,503.4h-9.6v129.5h9.6v-70.8c1-19.4,5-27.5,14.6-37.3c11.6-11.3,25.7-13.9,35.8-12.6v-9.6
	c-23.4-1-44.6,12.6-49.6,29.5H646V503.4z"/>
<path class="st0" d="M801.9,534.1c0-26.7-22.7-33.8-45.4-33.8c-30.5,0-48.1,14.4-49.4,42.8h9.6c1.3-22.4,16.6-34.5,39.8-34.5
	c29.5,0,36,19.7,36,25.4c0,21.2-1.8,23.9-44.6,27c-21.4,1.8-47.6,8.1-47.6,38.3c0,27.2,18.9,36.5,43.3,36.5
	c24.7,0,42.1-13.4,48.1-28.7h0.5v6.8c0,10.6,2.3,18.9,17.4,18.9c2.5,0,5-0.5,7.8-1v-8.1c-3,0.5-5.3,0.8-7.1,0.8
	c-8.6,0-8.6-8.1-8.6-15.6V534.1z M792.3,583.5c0,6.8-4.8,44.1-48.4,44.1c-22.7,0-34-12.6-34-28.2c0-19.4,12.8-27.5,35.5-30
	c18.6-2.5,39.3-1.5,46.9-10.1V583.5z"/>
<path class="st0" d="M939.5,543.4c-2.8-29.5-25.4-43.1-53.4-43.1c-38.3,0-59.5,30.5-59.5,66.5c0,36,17.4,69,59.5,69
	c28,0,50.4-17.6,54.7-48.6h-9.6c-3.3,23.7-20.9,40.3-45.1,40.3c-33.5,0-49.9-25.7-49.9-60.7c0-29.5,17.4-58.2,49.9-58.2
	c23.4,0,42.1,11.8,43.8,34.8H939.5z"/>
<rect x="965.4" y="503.4" class="st0" width="9.6" height="129.5"/>
<path class="st0" d="M1009,568.1c0-31,17.4-59.5,49.9-59.5c32.5,0,49.9,28.5,49.9,59.5c0,31-17.4,59.5-49.9,59.5
	C1026.4,627.6,1009,599.1,1009,568.1z M999.4,568.1c0,36.8,21.4,67.8,59.5,67.8c38,0,59.5-31,59.5-67.8c0-36.8-21.4-67.8-59.5-67.8
	C1020.8,500.3,999.4,531.3,999.4,568.1z"/>
<path class="st1" d="M561.8,417.5c1.1-14.9,11.1-27.6,28-27.6c15.9,0,27.4,12.3,28.2,27.6H561.8z M617.6,444.7
	c-2.8,12.7-12.1,19.1-25.3,19.1c-21.4,0-31-15.1-30.4-32.1H635c0.9-23.6-9.6-55.9-44.2-55.9c-26.6,0-45.9,21.5-45.9,50.8
	c0.9,29.9,15.7,51.4,46.9,51.4c21.9,0,37.4-11.7,41.8-33.3H617.6z"/>
<path class="st1" d="M668.6,340.7h-16.1v19.7h16.1V340.7z M652.5,475.7h16.1V378h-16.1V475.7z"/>
<polygon class="st1" points="773.2,378 756.4,378 729.8,459.4 729.4,459.4 702,378 684,378 720.3,475.7 737.5,475.7 "/>
<path class="st1" d="M805,340.7h-16.1v19.7H805V340.7z M788.9,475.7H805V378h-16.1V475.7z"/>
<path class="st1" d="M823.7,444.9c0.9,24.2,19.5,33.1,41.4,33.1c19.8,0,41.6-7.6,41.6-30.8c0-18.9-15.9-24.2-31.9-27.8
	c-14.9-3.6-31.9-5.5-31.9-17c0-9.8,11.1-12.5,20.8-12.5c10.6,0,21.5,4,22.7,16.4h16.1c-1.3-23.8-18.5-30.6-40.1-30.6
	c-17,0-36.5,8.1-36.5,27.8c0,18.7,16.1,24,31.9,27.6c16.1,3.6,31.9,5.7,31.9,18.1c0,12.3-13.6,14.6-23.6,14.6
	c-13.2,0-25.7-4.5-26.3-18.9H823.7z"/>
<path class="st1" d="M918.2,444.9c0.9,24.2,19.5,33.1,41.4,33.1c19.8,0,41.6-7.6,41.6-30.8c0-18.9-15.9-24.2-31.9-27.8
	c-14.9-3.6-31.9-5.5-31.9-17c0-9.8,11.1-12.5,20.8-12.5c10.6,0,21.5,4,22.7,16.4h16.1c-1.3-23.8-18.5-30.6-40.1-30.6
	c-17,0-36.5,8.1-36.5,27.8c0,18.7,16.1,24,31.9,27.6c16.1,3.6,31.9,5.7,31.9,18.1c0,12.3-13.6,14.6-23.6,14.6
	c-13.2,0-25.7-4.5-26.3-18.9H918.2z"/>
<path class="st1" d="M1105.4,462.8c-2.1,0.8-3.6,0.9-4.9,0.9c-5.1,0-5.1-3.4-5.1-11v-50.3c0-22.9-19.1-26.8-36.7-26.8
	c-21.7,0-40.4,8.5-41.4,32.7h16.1c0.8-14.4,10.8-18.5,24.4-18.5c10.2,0,21.7,2.3,21.7,16.3c0,12.1-15.1,11-32.9,14.4
	c-16.6,3.2-33.1,7.9-33.1,30.1c0,19.5,14.6,27.4,32.3,27.4c13.6,0,25.5-4.7,34.4-15.1c0,10.6,5.3,15.1,13.6,15.1
	c5.1,0,8.7-0.9,11.5-2.6V462.8z M1079.4,441.6c0,8.9-8.7,22.1-29.9,22.1c-9.8,0-18.9-3.8-18.9-14.4c0-11.9,9.1-15.7,19.7-17.6
	c10.8-1.9,22.9-2.1,29.1-6.6V441.6z"/>
<path class="st2" d="M212,399.9c0-14.2,2.1-35.8,2.1-50c0-25.1,7.9-38.6,7.9-63.8c0-11.7,0-17.9,0-29.5l15.1,10.1
	c0,11.7,0,17.9,0,29.5c0,25.1-4.1,37-7.9,63.8c-2,14.1,0.4,22.2,0.4,36.4L212,399.9z"/>
<path class="st3" d="M212,399.9c0-14.2,2.1-35.8,2.1-50c0-25.1,7.9-38.6,7.9-63.8c0-11.7,0-17.9,0-29.5l15.1,10.1
	c0,11.7,0,17.9,0,29.5c0,25.1-4.1,37-7.9,63.8c-2,14.1,0.4,22.2,0.4,36.4L212,399.9z"/>
<path class="st2" d="M374.7,395.6l-7.9-44.6c0-10.9,0-17.5,0-28.4c0-24.1,2-38.3,9.1-61.6l15.1,10.1c-7.1,23.3-9.1,37.5-9.1,61.6
	c0,10.9,11.8,68.8,11.8,68.8L374.7,395.6z"/>
<path class="st3" d="M374.7,395.6l-7.9-44.6c0-10.9,0-17.5,0-28.4c0-24.1,2-38.3,9.1-61.6l15.1,10.1c-7.1,23.3-9.1,37.5-9.1,61.6
	c0,10.9,11.8,68.8,11.8,68.8L374.7,395.6z"/>
<path class="st2" d="M219.7,248.2c27.7-15.3,53.4-10.2,85.3-7.6c28.5,2.3,69.3,17.1,84.6,23.2l-16.4-3c-12.6-5-24-7.1-34.7-9
	c-8.4-0.7-16.5-2-26.8-2c-32.1,0-47-0.8-74.7,14.6L219.7,248.2z"/>
<path class="st3" d="M219.7,248.2c27.7-15.3,53.4-10.2,85.3-7.6c28.5,2.3,69.3,17.1,84.6,23.2l-16.4-3c-12.6-5-24-7.1-34.7-9
	c-8.4-0.7-16.5-2-26.8-2c-32.1,0-47-0.8-74.7,14.6L219.7,248.2z"/>
<path class="st2" d="M213.6,247.8c34.1-17.1,53.5-43.6,91.5-43.6c0.8,0-2.4,3.9-1.6,4l10.9-1.9c9.7,1.3,16.8,12.2,26.4,15.9
	c29.7,12.4,50.7,22.6,67.7,48.5l-13.8-1.8c-17-25.9-37.7-35.5-67.4-47.8c-7.5-2.9-12.2-7.9-18.1-11.1c-33.9,2.2-49.5,23.3-81.7,39.5
	L213.6,247.8z"/>
<path class="st3" d="M213.6,247.8c34.1-17.1,53.5-43.6,91.5-43.6c0.8,0-2.4,3.9-1.6,4l10.9-1.9c9.7,1.3,16.8,12.2,26.4,15.9
	c29.7,12.4,50.7,22.6,67.7,48.5l-13.8-1.8c-17-25.9-37.7-35.5-67.4-47.8c-7.5-2.9-12.2-7.9-18.1-11.1c-33.9,2.2-49.5,23.3-81.7,39.5
	L213.6,247.8z"/>
<polygon class="st2" points="294.6,283.3 292.2,310 286.5,314.2 289.4,285 "/>
<polygon class="st3" points="294.6,283.3 292.2,310 286.5,314.2 289.4,285 "/>
<polygon class="st2" points="312.1,283.3 312.1,304.6 305.7,307.8 305.7,282.9 "/>
<polygon class="st3" points="312.1,283.3 312.1,304.6 305.7,307.8 305.7,282.9 "/>
<path class="st1" d="M72.2,417.9c0,0,245.5-52.8,402.9,7.6c0,0,11.9,12.6,4.5,13.1c-7.4,0.5-135.2-55.8-387.2-11.7
	C74.3,430,72.2,417.9,72.2,417.9z"/>
<path class="st4" d="M72.2,417.9c0,0,245.5-52.8,402.9,7.6c0,0,11.9,12.6,4.5,13.1c-7.4,0.5-135.2-55.8-387.2-11.7
	C74.3,430,72.2,417.9,72.2,417.9z"/>
<path class="st1" d="M352.2,414.2c52.8,3,30.5,14.5,30.5,14.5l-72.9-2.4c0,0-18.1-3.2-161.8,16.4c-17.3,2.4,0.8-10.5,0.8-10.5
	S225.4,407.1,352.2,414.2z"/>
<path class="st4" d="M352.2,414.2c52.8,3,30.5,14.5,30.5,14.5l-72.9-2.4c0,0-18.1-3.2-161.8,16.4c-17.3,2.4,0.8-10.5,0.8-10.5
	S225.4,407.1,352.2,414.2z"/>
<path class="st1" d="M408.4,440.7c4.1,0.7-4.1,12.8-4.1,12.8s-28.8-14.8-170.9,1.1c-17.3,1.9-7-13.9-7-13.9S293.9,419.9,408.4,440.7
	z"/>
<path class="st4" d="M408.4,440.7c4.1,0.7-4.1,12.8-4.1,12.8s-28.8-14.8-170.9,1.1c-17.3,1.9-7-13.9-7-13.9S293.9,419.9,408.4,440.7
	z"/>
</svg>
