<?xml version="1.0" encoding="UTF-8"?>
<svg xmlns="http://www.w3.org/2000/svg" xmlns:xlink="http://www.w3.org/1999/xlink" width="8220pt" height="5669pt" viewBox="0 0 8220 5669" version="1.1">
<g id="surface1">
<path style=" stroke:none;fill-rule:nonzero;fill:rgb(14.892578%,20.384216%,49.021912%);fill-opacity:1;" d="M 0 5669 L 8219.988281 5669 L 8219.988281 0.03125 L 0 0.03125 Z M 0 5669 "/>
<path style="fill:none;stroke-width:2;stroke-linecap:butt;stroke-linejoin:miter;stroke:rgb(0%,0%,0%);stroke-opacity:1;stroke-miterlimit:4;" d="M 0 -2.929688 L 82204.609375 -2.929688 L 82204.609375 56689.960938 L 0 56689.960938 Z M 0 -2.929688 " transform="matrix(0.1,0,0,-0.1,0,5669)"/>
<path style=" stroke:none;fill-rule:evenodd;fill:rgb(100%,100%,100%);fill-opacity:1;" d="M 1645.859375 3182.921875 C 1645.859375 3350.839844 1552.101563 3424.761719 1375.371094 3424.761719 L 660.699219 3424.761719 L 705.0625 3263.800781 L 1370.53125 3263.800781 C 1428.5 3263.800781 1459.03125 3247.898438 1459.03125 3182.921875 L 1459.03125 3164.929688 C 1459.03125 3099.949219 1428.5 3084.039063 1370.53125 3084.039063 L 917.105469 3084.039063 C 740.332031 3084.039063 646.617188 3010.109375 646.617188 2842.171875 L 646.617188 2834.828125 C 646.617188 2666.871094 740.332031 2592.960938 917.105469 2592.960938 L 1609 2592.960938 L 1564.660156 2753.898438 L 921.941406 2753.898438 C 863.96875 2753.898438 833.429688 2769.828125 833.429688 2834.828125 L 833.429688 2842.171875 C 833.429688 2907.148438 863.96875 2923.089844 921.941406 2923.089844 L 1375.371094 2923.089844 C 1552.140625 2923.089844 1645.859375 2997.011719 1645.859375 3164.929688 Z M 2755.25 3424.761719 L 2106.5 3424.761719 C 1923.488281 3424.761719 1821.648438 3343.429688 1821.648438 3168.550781 L 1821.648438 2849.191406 C 1821.648438 2674.28125 1923.488281 2592.960938 2106.5 2592.960938 L 2750.449219 2592.960938 L 2706 2753.898438 L 2111.320313 2753.898438 C 2051.808594 2753.898438 2008.46875 2780.730469 2008.46875 2849.191406 L 2008.46875 3168.550781 C 2008.46875 3237 2051.808594 3263.800781 2111.320313 3263.800781 L 2710.929688 3263.800781 Z M 3740.171875 3072.609375 L 3107.738281 3072.609375 L 3107.738281 3424.761719 L 2920.929688 3424.761719 L 2920.929688 2592.960938 L 3107.738281 2592.960938 L 3107.738281 2914.558594 L 3740.171875 2914.558594 L 3740.171875 2592.960938 L 3926.980469 2592.960938 L 3926.980469 3424.761719 L 3740.171875 3424.761719 Z M 6328.449219 3424.761719 L 5679.648438 3424.761719 C 5496.71875 3424.761719 5394.820313 3343.429688 5394.820313 3168.550781 L 5394.820313 2849.191406 C 5394.820313 2674.28125 5496.71875 2592.960938 5679.648438 2592.960938 L 6323.660156 2592.960938 L 6279.191406 2753.898438 L 5684.53125 2753.898438 C 5625.011719 2753.898438 5581.660156 2780.730469 5581.660156 2849.191406 L 5581.660156 3168.550781 C 5581.660156 3237 5625.011719 3263.800781 5684.53125 3263.800781 L 6284.121094 3263.800781 Z M 4145.328125 3168.550781 L 4145.328125 2592.960938 L 4332.140625 2592.960938 L 4332.140625 3168.550781 C 4332.140625 3237 4375.46875 3263.800781 4435 3263.800781 L 4905.398438 3263.800781 C 4964.921875 3263.800781 5008.269531 3237 5008.269531 3168.550781 L 5008.269531 2592.960938 L 5195.109375 2592.960938 L 5195.109375 3168.550781 C 5195.109375 3343.429688 5093.308594 3424.761719 4910.230469 3424.761719 L 4430.148438 3424.761719 C 4247.160156 3424.761719 4145.328125 3343.429688 4145.328125 3168.550781 Z M 7387.019531 3168.550781 L 7387.019531 2849.191406 C 7387.019531 2780.730469 7343.71875 2753.898438 7284.148438 2753.898438 L 6748.820313 2753.898438 C 6689.300781 2753.898438 6645.949219 2780.730469 6645.949219 2849.191406 L 6645.949219 3168.550781 C 6645.949219 3237 6689.300781 3263.800781 6748.820313 3263.800781 L 7284.148438 3263.800781 C 7343.71875 3263.800781 7387.019531 3237 7387.019531 3168.550781 Z M 7289.03125 3424.761719 L 6743.988281 3424.761719 C 6560.960938 3424.761719 6459.160156 3343.429688 6459.160156 3168.550781 L 6459.160156 2849.191406 C 6459.160156 2674.28125 6560.960938 2592.960938 6743.988281 2592.960938 L 7289.03125 2592.960938 C 7472.011719 2592.960938 7573.859375 2674.28125 7573.859375 2849.191406 L 7573.859375 3168.550781 C 7573.859375 3343.429688 7472.011719 3424.761719 7289.03125 3424.761719 Z M 4529.648438 2244.53125 L 4810.75 2244.53125 L 4751.691406 2473.5 L 4588.699219 2473.5 Z M 4913.808594 2244.53125 L 5153.199219 2244.53125 L 5008.269531 2473.5 L 4839.140625 2473.5 Z M 4187.210938 2244.53125 L 4426.589844 2244.53125 L 4501.289063 2473.5 L 4332.140625 2473.5 Z M 4187.210938 2244.53125 "/>
</g>
</svg>
