<?xml version="1.0" encoding="UTF-8"?>
<svg xmlns="http://www.w3.org/2000/svg" xmlns:xlink="http://www.w3.org/1999/xlink" width="200.61pt" height="47.62pt" viewBox="0 0 200.61 47.62" version="1.1">
<defs>
<clipPath id="clip1">
  <path d="M 0 0 L 200.609375 0 L 200.609375 47.621094 L 0 47.621094 Z M 0 0 "/>
</clipPath>
</defs>
<g id="surface1">
<path style=" stroke:none;fill-rule:nonzero;fill:rgb(100%,100%,100%);fill-opacity:1;" d="M 153.835938 45.976563 L 2.039063 45.976563 L 2.039063 1.640625 L 153.835938 1.640625 L 153.835938 45.976563 "/>
<path style=" stroke:none;fill-rule:nonzero;fill:rgb(88.233948%,7.450867%,31.37207%);fill-opacity:1;" d="M 153.828125 1.644531 L 198.558594 1.636719 L 198.558594 46.039063 L 153.828125 45.980469 L 153.828125 1.644531 "/>
<path style=" stroke:none;fill-rule:nonzero;fill:rgb(100%,100%,100%);fill-opacity:1;" d="M 181.246094 38.703125 C 191.78125 36.933594 191.910156 30.261719 190.667969 26.402344 L 189.039063 21.285156 C 188.1875 18.605469 187.796875 15.210938 191.195313 14.21875 L 191.003906 8.765625 C 182.984375 10.429688 181.699219 16.871094 183.449219 22.078125 C 183.628906 22.617188 185.148438 27.363281 185.148438 27.363281 C 185.824219 29.433594 185.445313 33.324219 180.277344 33.480469 L 181.246094 38.703125 "/>
<g clip-path="url(#clip1)" clip-rule="nonzero">
<path style=" stroke:none;fill-rule:evenodd;fill:rgb(67.842102%,68.626404%,69.802856%);fill-opacity:1;" d="M 2.03125 45.976563 L 198.5625 45.976563 L 198.5625 1.640625 L 2.03125 1.640625 Z M -0.015625 -0.00390625 L 200.609375 -0.00390625 L 200.609375 47.621094 L -0.015625 47.621094 L -0.015625 -0.00390625 "/>
</g>
<path style=" stroke:none;fill-rule:nonzero;fill:rgb(22.698975%,22.698975%,22.399902%);fill-opacity:1;" d="M 59.921875 25.148438 L 59.921875 28 L 51.046875 28 L 51.046875 11.796875 L 59.695313 11.796875 L 58.871094 14.644531 L 54.316406 14.644531 L 54.316406 18.316406 L 58.871094 18.316406 L 58.871094 21.113281 L 54.316406 21.113281 L 54.316406 25.148438 L 59.921875 25.148438 "/>
<path style=" stroke:none;fill-rule:nonzero;fill:rgb(22.698975%,22.698975%,22.399902%);fill-opacity:1;" d="M 22.816406 18.808594 C 24.78125 19.710938 26.144531 20.925781 26.144531 23.054688 C 26.144531 26.066406 24.019531 28.289063 20.675781 28.289063 C 18.855469 28.289063 17.421875 27.976563 15.769531 27.226563 L 16.832031 24.351563 C 17.96875 24.890625 19.152344 25.382813 20.445313 25.382813 C 22.082031 25.382813 22.925781 24.773438 22.925781 23.574219 C 22.925781 22.628906 22.28125 22.191406 21.09375 21.640625 L 18.847656 20.597656 C 17.101563 19.789063 15.808594 18.675781 15.808594 16.21875 C 15.808594 13.1875 18.457031 11.507813 21.328125 11.507813 C 23.019531 11.507813 24.070313 11.832031 25.617188 12.457031 L 24.519531 15.222656 C 23.53125 14.800781 22.585938 14.359375 21.484375 14.359375 C 20.042969 14.359375 19 14.890625 19 16.066406 C 19 16.9375 19.578125 17.320313 20.492188 17.738281 L 22.816406 18.808594 "/>
<path style="fill:none;stroke-width:32.9459;stroke-linecap:butt;stroke-linejoin:miter;stroke:rgb(22.698975%,22.698975%,22.399902%);stroke-opacity:1;stroke-miterlimit:4;" d="M 319.21875 196.2 L 319.21875 358.23125 " transform="matrix(0.1,0,0,-0.1,0,47.62)"/>
<path style=" stroke:none;fill-rule:nonzero;fill:rgb(22.698975%,22.698975%,22.399902%);fill-opacity:1;" d="M 47.769531 25.148438 L 47.769531 28 L 38.710938 28 L 38.710938 11.796875 L 42.003906 11.796875 L 42.003906 25.148438 L 47.769531 25.148438 "/>
<path style=" stroke:none;fill-rule:nonzero;fill:rgb(22.698975%,22.698975%,22.399902%);fill-opacity:1;" d="M 70.214844 18.808594 C 72.179688 19.710938 73.542969 20.925781 73.542969 23.054688 C 73.542969 26.066406 71.421875 28.289063 68.078125 28.289063 C 66.257813 28.289063 64.824219 27.976563 63.171875 27.226563 L 64.234375 24.351563 C 65.371094 24.890625 66.554688 25.382813 67.84375 25.382813 C 69.480469 25.382813 70.328125 24.773438 70.328125 23.574219 C 70.328125 22.628906 69.679688 22.191406 68.492188 21.640625 L 66.25 20.597656 C 64.503906 19.789063 63.210938 18.675781 63.210938 16.21875 C 63.210938 13.1875 65.859375 11.507813 68.730469 11.507813 C 70.417969 11.507813 71.46875 11.832031 73.019531 12.457031 L 71.917969 15.222656 C 70.929688 14.800781 69.988281 14.359375 68.886719 14.359375 C 67.445313 14.359375 66.398438 14.890625 66.398438 16.066406 C 66.398438 16.9375 66.976563 17.320313 67.894531 17.738281 L 70.214844 18.808594 "/>
<path style=" stroke:none;fill-rule:nonzero;fill:rgb(22.698975%,22.698975%,22.399902%);fill-opacity:1;" d="M 87.488281 11.796875 L 87.488281 14.671875 L 83.160156 14.671875 L 83.160156 28 L 79.867188 28 L 79.867188 14.671875 L 75.5625 14.671875 L 75.5625 11.796875 L 87.488281 11.796875 "/>
<path style=" stroke:none;fill-rule:nonzero;fill:rgb(22.698975%,22.698975%,22.399902%);fill-opacity:1;" d="M 97.273438 25.4375 C 100.011719 25.4375 101.378906 23.335938 101.378906 19.898438 C 101.378906 16.378906 100.089844 14.359375 97.273438 14.359375 C 94.542969 14.359375 93.171875 16.457031 93.171875 19.898438 C 93.171875 23.390625 94.511719 25.4375 97.273438 25.4375 M 97.273438 11.507813 C 102.980469 11.507813 104.800781 15.683594 104.800781 19.898438 C 104.800781 24.007813 102.878906 28.289063 97.273438 28.289063 C 91.625 28.289063 89.722656 24.058594 89.722656 19.898438 C 89.722656 15.738281 91.648438 11.507813 97.273438 11.507813 "/>
<path style=" stroke:none;fill-rule:nonzero;fill:rgb(22.698975%,22.698975%,22.399902%);fill-opacity:1;" d="M 111.464844 17.527344 L 111.5625 28 L 108.527344 28 L 108.527344 11.796875 L 111.449219 11.796875 L 117.828125 22.113281 L 117.707031 11.796875 L 120.769531 11.796875 L 120.769531 27.773438 L 118.070313 28.289063 L 111.464844 17.527344 "/>
<path style=" stroke:none;fill-rule:nonzero;fill:rgb(22.698975%,22.698975%,22.399902%);fill-opacity:1;" d="M 134.789063 25.148438 L 134.789063 28 L 125.917969 28 L 125.917969 11.796875 L 134.558594 11.796875 L 133.738281 14.644531 L 129.179688 14.644531 L 129.179688 18.316406 L 133.738281 18.316406 L 133.738281 21.113281 L 129.179688 21.113281 L 129.179688 25.148438 L 134.789063 25.148438 "/>
<path style=" stroke:none;fill-rule:evenodd;fill:rgb(22.698975%,22.698975%,22.399902%);fill-opacity:1;" d="M 138.691406 12.90625 C 138.691406 13.078125 138.5625 13.1875 138.355469 13.1875 L 138.140625 13.1875 L 138.140625 12.628906 L 138.355469 12.628906 C 138.566406 12.628906 138.691406 12.734375 138.691406 12.90625 M 139.167969 14.226563 L 138.707031 13.453125 C 139 13.410156 139.167969 13.199219 139.167969 12.867188 C 139.167969 12.46875 138.925781 12.277344 138.40625 12.277344 L 137.699219 12.277344 L 137.699219 14.226563 L 138.140625 14.226563 L 138.140625 13.476563 L 138.222656 13.476563 L 138.648438 14.226563 Z M 139.722656 13.25 C 139.722656 13.972656 139.136719 14.558594 138.414063 14.558594 C 137.691406 14.558594 137.105469 13.972656 137.105469 13.25 C 137.105469 12.523438 137.691406 11.9375 138.414063 11.9375 C 139.136719 11.9375 139.722656 12.523438 139.722656 13.25 M 140.109375 13.25 C 140.109375 12.316406 139.347656 11.554688 138.414063 11.554688 C 137.476563 11.554688 136.714844 12.316406 136.714844 13.25 C 136.714844 14.1875 137.476563 14.945313 138.414063 14.945313 C 139.347656 14.945313 140.109375 14.1875 140.109375 13.25 "/>
<path style=" stroke:none;fill-rule:evenodd;fill:rgb(67.842102%,68.626404%,69.802856%);fill-opacity:1;" d="M 48.367188 36.589844 C 48.371094 36.378906 48.339844 36.183594 48.273438 35.996094 C 48.207031 35.8125 48.101563 35.660156 47.953125 35.546875 C 47.804688 35.429688 47.601563 35.371094 47.351563 35.367188 C 47.28125 35.367188 47.222656 35.375 47.167969 35.382813 C 47.113281 35.398438 47.058594 35.414063 46.996094 35.433594 L 46.996094 37.449219 C 47.058594 37.523438 47.132813 37.585938 47.21875 37.632813 C 47.300781 37.679688 47.390625 37.707031 47.484375 37.707031 C 47.738281 37.699219 47.945313 37.589844 48.109375 37.386719 C 48.277344 37.175781 48.363281 36.914063 48.367188 36.589844 M 49.3125 36.363281 C 49.3125 36.734375 49.238281 37.066406 49.09375 37.351563 C 48.945313 37.640625 48.742188 37.863281 48.476563 38.03125 C 48.210938 38.195313 47.894531 38.277344 47.53125 38.28125 C 47.402344 38.28125 47.265625 38.261719 47.117188 38.222656 C 46.96875 38.1875 46.835938 38.128906 46.71875 38.058594 L 46.0625 38.363281 L 46.0625 33.179688 L 46.996094 32.890625 L 46.996094 35.117188 C 47.105469 34.988281 47.246094 34.886719 47.40625 34.808594 C 47.574219 34.738281 47.730469 34.699219 47.875 34.699219 C 48.203125 34.703125 48.472656 34.777344 48.683594 34.929688 C 48.898438 35.078125 49.054688 35.277344 49.15625 35.527344 C 49.261719 35.777344 49.3125 36.058594 49.3125 36.363281 "/>
<path style=" stroke:none;fill-rule:nonzero;fill:rgb(67.842102%,68.626404%,69.802856%);fill-opacity:1;" d="M 53.164063 34.824219 L 51.863281 38.175781 C 51.761719 38.457031 51.644531 38.714844 51.511719 38.953125 C 51.378906 39.1875 51.210938 39.378906 51.007813 39.523438 C 50.800781 39.671875 50.539063 39.746094 50.21875 39.75 L 49.957031 38.820313 L 50.335938 38.820313 C 50.558594 38.828125 50.734375 38.804688 50.867188 38.757813 C 51 38.703125 51.097656 38.574219 51.15625 38.371094 L 49.925781 34.824219 L 50.914063 34.824219 L 51.621094 36.945313 L 52.335938 34.824219 L 53.164063 34.824219 "/>
<path style=" stroke:none;fill-rule:nonzero;fill:rgb(67.842102%,68.626404%,69.802856%);fill-opacity:1;" d="M 60.875 38.011719 C 60.625 38.1875 60.34375 38.308594 60.035156 38.375 C 59.722656 38.4375 59.390625 38.472656 59.023438 38.46875 C 58.371094 38.460938 57.804688 38.328125 57.324219 38.070313 C 56.84375 37.808594 56.472656 37.449219 56.210938 36.992188 C 55.949219 36.535156 55.8125 36.011719 55.8125 35.421875 C 55.816406 34.8125 55.957031 34.273438 56.226563 33.800781 C 56.503906 33.332031 56.878906 32.96875 57.363281 32.699219 C 57.84375 32.429688 58.398438 32.292969 59.023438 32.289063 C 59.796875 32.289063 60.410156 32.417969 60.875 32.667969 L 60.875 33.925781 C 60.582031 33.726563 60.300781 33.589844 60.023438 33.5 C 59.746094 33.410156 59.4375 33.367188 59.089844 33.367188 C 58.53125 33.375 58.070313 33.558594 57.707031 33.914063 C 57.347656 34.269531 57.160156 34.746094 57.148438 35.347656 C 57.152344 35.710938 57.234375 36.042969 57.394531 36.347656 C 57.550781 36.652344 57.769531 36.894531 58.046875 37.078125 C 58.324219 37.265625 58.640625 37.355469 58.996094 37.363281 C 59.335938 37.371094 59.652344 37.332031 59.953125 37.253906 C 60.246094 37.171875 60.554688 37.011719 60.875 36.769531 L 60.875 38.011719 "/>
<path style=" stroke:none;fill-rule:evenodd;fill:rgb(67.842102%,68.626404%,69.802856%);fill-opacity:1;" d="M 66.84375 35.382813 C 66.839844 34.765625 66.695313 34.273438 66.414063 33.90625 C 66.128906 33.546875 65.726563 33.359375 65.207031 33.347656 C 64.683594 33.359375 64.28125 33.546875 64 33.90625 C 63.71875 34.273438 63.574219 34.765625 63.570313 35.382813 C 63.574219 36 63.71875 36.492188 64 36.855469 C 64.28125 37.222656 64.683594 37.410156 65.207031 37.417969 C 65.726563 37.410156 66.128906 37.222656 66.414063 36.855469 C 66.695313 36.492188 66.839844 36 66.84375 35.382813 M 68.179688 35.382813 C 68.175781 36.003906 68.054688 36.550781 67.808594 37.011719 C 67.558594 37.472656 67.214844 37.832031 66.769531 38.085938 C 66.328125 38.34375 65.804688 38.472656 65.207031 38.476563 C 64.609375 38.472656 64.085938 38.34375 63.644531 38.085938 C 63.199219 37.832031 62.851563 37.472656 62.609375 37.011719 C 62.363281 36.550781 62.238281 36.003906 62.234375 35.382813 C 62.246094 34.4375 62.519531 33.6875 63.046875 33.136719 C 63.578125 32.582031 64.300781 32.300781 65.207031 32.289063 C 66.109375 32.300781 66.832031 32.582031 67.363281 33.136719 C 67.894531 33.6875 68.167969 34.4375 68.179688 35.382813 "/>
<path style=" stroke:none;fill-rule:nonzero;fill:rgb(67.842102%,68.626404%,69.802856%);fill-opacity:1;" d="M 73.671875 36.65625 C 73.667969 37.023438 73.574219 37.339844 73.390625 37.613281 C 73.203125 37.882813 72.953125 38.09375 72.632813 38.246094 C 72.320313 38.398438 71.960938 38.476563 71.5625 38.476563 C 71.277344 38.476563 70.988281 38.46875 70.695313 38.4375 C 70.40625 38.410156 70.121094 38.351563 69.84375 38.253906 L 69.722656 36.972656 C 69.953125 37.121094 70.214844 37.238281 70.511719 37.332031 C 70.808594 37.421875 71.140625 37.472656 71.507813 37.472656 C 71.757813 37.46875 71.957031 37.394531 72.121094 37.261719 C 72.28125 37.128906 72.367188 36.964844 72.371094 36.777344 C 72.371094 36.601563 72.320313 36.464844 72.214844 36.355469 C 72.117188 36.25 71.96875 36.15625 71.777344 36.070313 L 70.984375 35.699219 C 70.570313 35.503906 70.273438 35.273438 70.085938 35.011719 C 69.902344 34.746094 69.8125 34.449219 69.816406 34.121094 C 69.828125 33.554688 70.039063 33.113281 70.441406 32.796875 C 70.84375 32.476563 71.363281 32.3125 72.007813 32.308594 C 72.28125 32.3125 72.558594 32.347656 72.832031 32.417969 C 73.101563 32.488281 73.324219 32.5625 73.496094 32.652344 L 73.496094 33.859375 C 73.195313 33.628906 72.929688 33.476563 72.703125 33.402344 C 72.476563 33.328125 72.246094 33.296875 72.007813 33.300781 C 71.734375 33.304688 71.511719 33.367188 71.34375 33.480469 C 71.171875 33.601563 71.085938 33.765625 71.082031 33.972656 C 71.085938 34.140625 71.140625 34.289063 71.257813 34.414063 C 71.375 34.535156 71.523438 34.636719 71.703125 34.714844 L 72.613281 35.132813 C 72.898438 35.257813 73.144531 35.449219 73.347656 35.707031 C 73.554688 35.960938 73.660156 36.277344 73.671875 36.65625 "/>
<path style=" stroke:none;fill-rule:nonzero;fill:rgb(67.842102%,68.626404%,69.802856%);fill-opacity:1;" d="M 79.460938 37.316406 L 79.085938 38.355469 L 75.707031 38.355469 L 75.707031 32.394531 L 79.328125 32.394531 L 78.984375 33.402344 L 76.976563 33.402344 L 76.976563 34.835938 L 78.929688 34.835938 L 78.59375 35.839844 L 76.976563 35.839844 L 76.976563 37.316406 L 79.460938 37.316406 "/>
<path style=" stroke:none;fill-rule:nonzero;fill:rgb(67.842102%,68.626404%,69.802856%);fill-opacity:1;" d="M 86.433594 38.355469 L 85.730469 38.355469 L 82.707031 34.585938 L 82.707031 38.355469 L 81.578125 38.355469 L 81.578125 33.164063 L 80.953125 32.394531 L 82.570313 32.394531 L 85.292969 35.832031 L 85.292969 32.394531 L 86.433594 32.394531 L 86.433594 38.355469 "/>
<path style=" stroke:none;fill-rule:nonzero;fill:rgb(67.842102%,68.626404%,69.802856%);fill-opacity:1;" d="M 92.589844 32.394531 L 92.242188 33.460938 L 90.757813 33.460938 L 90.757813 38.355469 L 89.476563 38.355469 L 89.476563 33.460938 L 87.886719 33.460938 L 87.886719 32.394531 L 92.589844 32.394531 "/>
<path style=" stroke:none;fill-rule:nonzero;fill:rgb(67.842102%,68.626404%,69.802856%);fill-opacity:1;" d="M 95.289063 38.355469 L 94.015625 38.355469 L 94.015625 32.390625 L 95.289063 32.390625 L 95.289063 38.355469 "/>
<path style=" stroke:none;fill-rule:nonzero;fill:rgb(67.842102%,68.626404%,69.802856%);fill-opacity:1;" d="M 102.597656 38.355469 L 101.894531 38.355469 L 98.875 34.585938 L 98.875 38.355469 L 97.742188 38.355469 L 97.742188 33.164063 L 97.117188 32.394531 L 98.734375 32.394531 L 101.457031 35.832031 L 101.457031 32.394531 L 102.597656 32.394531 L 102.597656 38.355469 "/>
<path style=" stroke:none;fill-rule:evenodd;fill:rgb(67.842102%,68.626404%,69.802856%);fill-opacity:1;" d="M 108.875 35.382813 C 108.871094 34.765625 108.730469 34.273438 108.445313 33.90625 C 108.160156 33.546875 107.761719 33.359375 107.242188 33.347656 C 106.71875 33.359375 106.3125 33.546875 106.035156 33.90625 C 105.75 34.273438 105.609375 34.765625 105.605469 35.382813 C 105.609375 36 105.75 36.492188 106.035156 36.855469 C 106.3125 37.222656 106.71875 37.410156 107.242188 37.417969 C 107.761719 37.410156 108.160156 37.222656 108.445313 36.855469 C 108.730469 36.492188 108.871094 36 108.875 35.382813 M 110.214844 35.382813 C 110.210938 36.003906 110.085938 36.550781 109.839844 37.011719 C 109.59375 37.472656 109.25 37.832031 108.804688 38.085938 C 108.359375 38.34375 107.839844 38.472656 107.242188 38.476563 C 106.640625 38.472656 106.121094 38.34375 105.679688 38.085938 C 105.234375 37.832031 104.890625 37.472656 104.644531 37.011719 C 104.398438 36.550781 104.273438 36.003906 104.269531 35.382813 C 104.28125 34.4375 104.550781 33.6875 105.082031 33.136719 C 105.613281 32.582031 106.332031 32.300781 107.242188 32.289063 C 108.148438 32.300781 108.863281 32.582031 109.398438 33.136719 C 109.929688 33.6875 110.203125 34.4375 110.214844 35.382813 "/>
</g>
</svg>
