<?xml version="1.0" encoding="UTF-8"?>
<svg xmlns="http://www.w3.org/2000/svg" xmlns:xlink="http://www.w3.org/1999/xlink" width="482.32pt" height="350.87pt" viewBox="0 0 482.32 350.87" version="1.1">
<defs>
<clipPath id="clip1">
  <path d="M 67 6 L 413 6 L 413 350.871094 L 67 350.871094 Z M 67 6 "/>
</clipPath>
<clipPath id="clip2">
  <path d="M 364 0 L 482.320313 0 L 482.320313 131 L 364 131 Z M 364 0 "/>
</clipPath>
</defs>
<g id="surface1">
<g clip-path="url(#clip1)" clip-rule="nonzero">
<path style=" stroke:none;fill-rule:evenodd;fill:rgb(75.68512%,0%,0%);fill-opacity:1;" d="M 67.996094 178.792969 C 67.996094 83.753906 145.03125 6.714844 240.054688 6.714844 C 335.085938 6.714844 412.117188 83.753906 412.117188 178.792969 C 412.117188 273.828125 335.085938 350.871094 240.054688 350.871094 C 145.03125 350.871094 67.996094 273.828125 67.996094 178.792969 "/>
</g>
<path style=" stroke:none;fill-rule:nonzero;fill:rgb(10.998535%,10.998535%,10.598755%);fill-opacity:1;" d="M 52.863281 228.449219 C 52.238281 227.425781 52.570313 226.074219 53.59375 225.457031 L 77.449219 210.90625 C 78.472656 210.277344 79.828125 210.609375 80.449219 211.636719 L 135.4375 301.847656 C 136.058594 302.871094 135.730469 304.214844 134.714844 304.839844 L 110.847656 319.382813 C 109.824219 320.015625 108.472656 319.679688 107.847656 318.65625 "/>
<path style=" stroke:none;fill-rule:nonzero;fill:rgb(10.998535%,10.998535%,10.598755%);fill-opacity:1;" d="M 262.859375 224.15625 C 263.480469 225.179688 263.15625 226.53125 262.128906 227.148438 L 252.71875 232.886719 C 251.695313 233.515625 250.34375 233.183594 249.71875 232.160156 L 194.734375 141.953125 C 194.109375 140.929688 194.4375 139.582031 195.464844 138.960938 L 219.980469 124.011719 C 221.003906 123.386719 222.578125 123.523438 223.472656 124.320313 L 265.347656 161.484375 C 266.246094 162.28125 266.46875 162.09375 265.84375 161.066406 L 238.082031 115.527344 C 237.457031 114.503906 237.785156 113.152344 238.808594 112.53125 L 248.21875 106.792969 C 249.246094 106.164063 250.597656 106.492188 251.21875 107.515625 L 306.207031 197.722656 C 306.828125 198.75 306.507813 200.101563 305.484375 200.722656 L 280.960938 215.671875 C 279.933594 216.300781 278.367188 216.152344 277.476563 215.347656 L 234.984375 177.222656 C 234.09375 176.421875 233.871094 176.601563 234.496094 177.632813 "/>
<path style=" stroke:none;fill-rule:nonzero;fill:rgb(10.998535%,10.998535%,10.598755%);fill-opacity:1;" d="M 408.378906 112.5 C 414.769531 127.707031 404.71875 141.835938 389.351563 151.203125 C 373.917969 160.613281 357.734375 162.628906 347.324219 149.714844 L 302.453125 76.285156 C 301.828125 75.261719 302.152344 73.910156 303.175781 73.285156 L 326.386719 59.140625 C 327.402344 58.515625 328.753906 58.84375 329.371094 59.867188 L 367.757813 123.261719 C 368.375 124.285156 369.671875 125.714844 370.628906 126.433594 C 370.628906 126.433594 373.101563 128.289063 375.410156 126.882813 C 377.71875 125.476563 378.453125 122.464844 377.046875 120.152344 L 337.339844 55.015625 C 336.710938 53.992188 337.035156 52.644531 338.0625 52.019531 L 360.535156 38.316406 C 361.5625 37.6875 362.914063 38.015625 363.535156 39.039063 L 408.445313 112.71875 "/>
<g clip-path="url(#clip2)" clip-rule="nonzero">
<path style=" stroke:none;fill-rule:nonzero;fill:rgb(10.998535%,10.998535%,10.598755%);fill-opacity:1;" d="M 481.671875 90.898438 L 429.246094 48.433594 L 424.976563 1.320313 C 424.871094 0.125 423.945313 -0.34375 422.921875 0.28125 L 411.554688 7.214844 C 410.53125 7.839844 409.769531 9.324219 409.863281 10.523438 L 411.796875 34.296875 L 394.308594 20.132813 C 393.371094 19.378906 391.777344 19.269531 390.753906 19.894531 L 365.777344 35.117188 C 364.757813 35.746094 364.683594 36.867188 365.617188 37.621094 L 415.308594 77.519531 L 419.480469 128.941406 C 419.578125 130.132813 420.496094 130.601563 421.515625 129.980469 L 433.980469 122.378906 C 435.003906 121.753906 435.757813 120.265625 435.648438 119.070313 L 433.183594 91.871094 L 453.421875 108.125 C 454.359375 108.875 455.964844 108.980469 456.984375 108.351563 L 481.503906 93.40625 C 482.53125 92.78125 482.605469 91.652344 481.671875 90.898438 "/>
</g>
<path style=" stroke:none;fill-rule:nonzero;fill:rgb(10.998535%,10.998535%,10.598755%);fill-opacity:1;" d="M 336.351563 144.960938 L 328.367188 149.832031 L 288.660156 84.691406 C 288.03125 83.667969 286.6875 83.339844 285.660156 83.96875 L 261.796875 98.511719 C 260.773438 99.140625 260.445313 100.488281 261.074219 101.511719 L 301.914063 168.515625 L 316.0625 191.71875 C 316.683594 192.746094 318.035156 193.070313 319.054688 192.441406 L 342.917969 177.902344 L 352.765625 171.890625 C 353.789063 171.269531 354.125 169.921875 353.496094 168.894531 L 339.351563 145.6875 C 338.726563 144.660156 337.375 144.335938 336.351563 144.960938 "/>
<path style=" stroke:none;fill-rule:nonzero;fill:rgb(10.998535%,10.998535%,10.598755%);fill-opacity:1;" d="M 188.234375 231.660156 L 176.449219 200.996094 L 198.425781 225.445313 Z M 246.132813 234.394531 L 175.332031 153.746094 C 174.542969 152.84375 173.054688 152.617188 172.03125 153.242188 L 158.886719 161.257813 L 149.03125 167.265625 L 148.8125 167.398438 C 147.789063 168.023438 147.308594 169.449219 147.742188 170.566406 L 186.3125 270.261719 C 186.742188 271.386719 187.933594 271.792969 188.960938 271.164063 L 198.808594 265.15625 C 199.832031 264.535156 200.320313 263.101563 199.886719 261.992188 L 194.40625 247.722656 L 209.929688 238.257813 L 220.5 250.019531 C 221.300781 250.921875 222.796875 251.132813 223.820313 250.515625 L 245.710938 237.164063 C 246.734375 236.542969 246.925781 235.296875 246.132813 234.394531 "/>
<path style=" stroke:none;fill-rule:nonzero;fill:rgb(10.998535%,10.998535%,10.598755%);fill-opacity:1;" d="M 130 178.871094 L 87.742188 204.628906 C 86.71875 205.253906 86.394531 206.605469 87.015625 207.625 L 101.5625 231.492188 C 102.191406 232.519531 103.535156 232.839844 104.5625 232.222656 L 111.894531 227.753906 L 151.203125 292.230469 C 151.824219 293.253906 153.171875 293.582031 154.195313 292.960938 L 177.40625 278.8125 C 178.425781 278.183594 178.75 276.839844 178.128906 275.816406 L 138.824219 211.324219 L 146.816406 206.464844 C 147.839844 205.835938 148.167969 204.488281 147.542969 203.464844 L 132.996094 179.59375 C 132.367188 178.570313 131.023438 178.25 130 178.871094 "/>
<path style=" stroke:none;fill-rule:nonzero;fill:rgb(10.998535%,10.998535%,10.598755%);fill-opacity:1;" d="M 43.296875 231.726563 L 1.042969 257.488281 C 0.0195313 258.117188 -0.308594 259.460938 0.316406 260.488281 L 14.867188 284.351563 C 15.492188 285.375 16.835938 285.703125 17.859375 285.078125 L 25.199219 280.605469 L 64.503906 345.09375 C 65.128906 346.117188 66.472656 346.4375 67.496094 345.816406 L 90.707031 331.664063 C 91.722656 331.046875 92.058594 329.691406 91.429688 328.671875 L 52.125 264.1875 L 60.113281 259.3125 C 61.140625 258.695313 61.46875 257.34375 60.84375 256.320313 L 46.296875 232.457031 C 45.667969 231.433594 44.324219 231.105469 43.296875 231.726563 "/>
</g>
</svg>
