<?xml version="1.0" encoding="UTF-8"?>
<svg xmlns="http://www.w3.org/2000/svg" xmlns:xlink="http://www.w3.org/1999/xlink" width="586.4pt" height="197.2pt" viewBox="0 0 586.4 197.2" version="1.1">
<defs>
<clipPath id="clip1">
  <path d="M 556 162 L 586.398438 162 L 586.398438 192 L 556 192 Z M 556 162 "/>
</clipPath>
<clipPath id="clip2">
  <path d="M 384 177 L 406 177 L 406 197.199219 L 384 197.199219 Z M 384 177 "/>
</clipPath>
</defs>
<g id="surface1">
<path style=" stroke:none;fill-rule:evenodd;fill:rgb(32.542419%,36.473083%,33.325195%);fill-opacity:1;" d="M 385.109375 2.476563 L 385.109375 -0.0742188 L 418.597656 -0.0742188 L 418.597656 22.992188 Z M 385.109375 2.476563 "/>
<path style=" stroke:none;fill-rule:evenodd;fill:rgb(0%,0%,0%);fill-opacity:1;" d="M 78.347656 121.859375 L 6.335938 33.816406 L 6.335938 118.589844 L 0.0742188 118.589844 L 0.0742188 22.992188 L 5.507813 22.992188 L 77.519531 111.039063 L 77.519531 25.328125 L 83.777344 25.328125 L 83.777344 121.859375 Z M 299.929688 72.476563 C 299.929688 99.722656 278.085938 121.808594 251.144531 121.808594 C 224.199219 121.808594 202.359375 99.722656 202.359375 72.476563 C 202.359375 45.222656 224.199219 23.136719 251.144531 23.136719 C 278.085938 23.136719 299.929688 45.222656 299.929688 72.476563 Z M 251.144531 29.691406 C 227.78125 29.691406 208.84375 48.847656 208.84375 72.476563 C 208.84375 96.097656 227.78125 115.253906 251.144531 115.253906 C 274.511719 115.253906 293.449219 96.097656 293.449219 72.476563 C 293.449219 48.847656 274.511719 29.691406 251.144531 29.691406 Z M 101.832031 63.109375 C 106.039063 43.941406 122.941406 29.609375 143.160156 29.609375 C 163.382813 29.609375 180.289063 43.941406 184.5 63.113281 Z M 179.789063 93.914063 C 172.460938 106.667969 158.796875 115.242188 143.160156 115.242188 C 119.777344 115.242188 100.824219 96.070313 100.824219 72.429688 C 100.824219 71.472656 100.855469 70.519531 100.921875 69.578125 L 191.90625 69.578125 C 190.453125 43.636719 169.183594 23.046875 143.160156 23.046875 C 116.199219 23.046875 94.339844 45.15625 94.339844 72.429688 C 94.339844 99.703125 116.199219 121.804688 143.160156 121.804688 C 161.195313 121.804688 176.945313 111.914063 185.402344 97.214844 Z M 318.148438 118.589844 L 318.148438 25.328125 L 334.6875 25.328125 L 334.6875 101.628906 L 385.109375 101.628906 L 385.109375 118.589844 Z M 401.886719 118.589844 L 401.886719 25.328125 L 403.40625 25.328125 L 418.59375 34.617188 L 418.59375 109.292969 L 403.40625 118.589844 Z M 452.078125 118.589844 L 468.816406 118.589844 L 468.816406 42.464844 L 493.929688 42.464844 L 493.929688 25.328125 L 426.964844 25.328125 L 426.964844 42.464844 L 452.078125 42.464844 Z M 502.300781 118.589844 L 519.039063 118.589844 L 519.039063 74.695313 L 569.292969 74.695313 L 569.292969 118.589844 L 586 118.589844 L 586 25.328125 L 569.292969 25.328125 L 569.292969 58.175781 L 519.039063 58.175781 L 519.039063 25.328125 L 502.300781 25.328125 Z M 502.300781 118.589844 "/>
<path style=" stroke:none;fill-rule:evenodd;fill:rgb(32.542419%,36.473083%,33.325195%);fill-opacity:1;" d="M 462.917969 173.84375 C 463.984375 168.761719 469.59375 164.519531 474.75 164.558594 C 480.207031 164.59375 486.207031 168.027344 486.882813 173.84375 Z M 488.066406 184.542969 L 485.847656 183.457031 C 483.617188 187.226563 479.3125 189.464844 474.984375 189.464844 C 467.816406 189.464844 462.167969 183.414063 462.527344 176.273438 L 489.707031 176.273438 C 489.707031 167.816406 483.007813 162.101563 474.851563 162.117188 C 466.871094 162.128906 460.140625 168.640625 460.035156 176.714844 C 459.925781 185.105469 466.585938 191.90625 475.003906 191.914063 C 480.382813 191.914063 485.332031 189.191406 488.066406 184.542969 Z M 488.066406 184.542969 "/>
<g clip-path="url(#clip1)" clip-rule="nonzero">
<path style=" stroke:none;fill-rule:evenodd;fill:rgb(32.542419%,36.473083%,33.325195%);fill-opacity:1;" d="M 559.625 173.839844 C 560.695313 168.757813 566.304688 164.515625 571.457031 164.554688 C 576.914063 164.589844 582.914063 168.023438 583.59375 173.839844 Z M 584.773438 184.539063 L 582.554688 183.453125 C 580.324219 187.222656 576.019531 189.460938 571.691406 189.460938 C 564.523438 189.460938 558.875 183.410156 559.238281 176.269531 L 586.414063 176.269531 C 586.414063 167.8125 579.71875 162.097656 571.558594 162.113281 C 563.578125 162.128906 556.851563 168.636719 556.746094 176.710938 C 556.636719 185.101563 563.292969 191.902344 571.710938 191.90625 C 577.089844 191.90625 582.042969 189.1875 584.773438 184.539063 Z M 584.773438 184.539063 "/>
</g>
<path style=" stroke:none;fill-rule:evenodd;fill:rgb(32.542419%,36.473083%,33.325195%);fill-opacity:1;" d="M 529.859375 165.007813 L 549.53125 165.007813 L 528.820313 191.347656 L 554.476563 191.347656 L 554.476563 188.859375 L 534.097656 188.859375 L 554.585938 162.707031 L 529.859375 162.707031 Z M 529.859375 165.007813 "/>
<path style=" stroke:none;fill-rule:evenodd;fill:rgb(32.542419%,36.473083%,33.325195%);fill-opacity:1;" d="M 430.898438 191.347656 L 433.265625 191.347656 L 433.265625 176.273438 L 452.90625 176.273438 L 452.90625 191.347656 L 455.273438 191.347656 L 455.273438 162.707031 L 452.90625 162.707031 L 452.90625 173.894531 L 433.265625 173.894531 L 433.265625 162.707031 L 430.898438 162.707031 Z M 430.898438 191.347656 "/>
<path style=" stroke:none;fill-rule:evenodd;fill:rgb(32.542419%,36.473083%,33.325195%);fill-opacity:1;" d="M 494.671875 184.796875 L 492.527344 186.109375 C 494.847656 189.765625 497.648438 191.914063 502.164063 191.914063 C 507.230469 191.914063 511.671875 188.925781 511.671875 183.519531 C 511.671875 181.054688 510.761719 179.207031 509.113281 177.820313 C 506.28125 175.445313 502.332031 174.984375 499.308594 173.261719 C 497.828125 172.417969 496.753906 171.082031 496.78125 169.3125 C 496.824219 166.386719 499.59375 164.703125 502.28125 164.703125 C 504.773438 164.703125 506.441406 165.484375 508.171875 167.054688 L 509.964844 165.386719 C 507.828125 163.046875 504.535156 162.226563 502.324219 162.226563 C 498.046875 162.226563 494.28125 165.058594 494.28125 169.589844 C 494.28125 172.347656 495.765625 174.234375 498.148438 175.503906 C 501.105469 177.066406 505.300781 177.746094 507.65625 179.972656 C 508.664063 180.925781 509.164063 182.394531 509.164063 183.886719 C 509.164063 187.867188 505.191406 189.476563 502.386719 189.429688 C 498.511719 189.359375 496.757813 187.945313 494.671875 184.796875 Z M 494.671875 184.796875 "/>
<path style=" stroke:none;fill-rule:evenodd;fill:rgb(32.542419%,36.473083%,33.325195%);fill-opacity:1;" d="M 402.828125 165.007813 L 413.453125 165.007813 L 413.453125 191.347656 L 415.824219 191.347656 L 415.824219 165.007813 L 426.449219 165.007813 L 426.449219 162.707031 L 402.828125 162.707031 Z M 402.828125 165.007813 "/>
<path style=" stroke:none;fill-rule:evenodd;fill:rgb(79.6875%,78.514099%,50.584412%);fill-opacity:1;" d="M 529.9375 152.746094 L 529.765625 152.746094 C 529.996094 153.675781 529.859375 157.613281 529.84375 158.835938 L 511.703125 158.835938 C 511.695313 157.613281 511.550781 153.664063 511.785156 152.746094 L 511.613281 152.746094 L 511.589844 158.890625 L 529.90625 158.953125 Z M 529.9375 152.746094 "/>
<path style=" stroke:none;fill-rule:evenodd;fill:rgb(59.179688%,57.226563%,0%);fill-opacity:1;" d="M 511.613281 158.953125 L 529.90625 158.953125 L 529.90625 152.75 L 511.613281 152.75 Z M 511.613281 158.953125 "/>
<path style=" stroke:none;fill-rule:evenodd;fill:rgb(32.542419%,36.473083%,33.325195%);fill-opacity:1;" d="M 517.566406 191.347656 L 518.257813 191.347656 L 523.964844 188.074219 L 523.964844 165.992188 L 518.257813 162.707031 L 517.570313 162.691406 Z M 517.566406 191.347656 "/>
<g clip-path="url(#clip2)" clip-rule="nonzero">
<path style=" stroke:none;fill-rule:evenodd;fill:rgb(32.542419%,36.473083%,33.325195%);fill-opacity:1;" d="M 384.734375 189.773438 C 384.734375 190.082031 384.730469 190.394531 384.722656 190.714844 C 384.714844 191.039063 384.703125 191.347656 384.691406 191.640625 C 384.675781 191.9375 384.664063 192.207031 384.648438 192.445313 L 386.253906 192.445313 L 386.359375 190.753906 L 386.402344 190.753906 C 386.800781 191.425781 387.292969 191.917969 387.878906 192.222656 C 388.46875 192.53125 389.132813 192.683594 389.886719 192.679688 C 390.351563 192.679688 390.808594 192.605469 391.257813 192.457031 C 391.707031 192.3125 392.128906 192.089844 392.519531 191.796875 C 392.917969 191.5 393.265625 191.132813 393.566406 190.6875 C 393.871094 190.25 394.109375 189.730469 394.28125 189.136719 C 394.453125 188.546875 394.539063 187.886719 394.542969 187.144531 C 394.539063 186.359375 394.433594 185.648438 394.222656 185.007813 C 394.011719 184.363281 393.710938 183.808594 393.324219 183.34375 C 392.933594 182.878906 392.472656 182.519531 391.941406 182.269531 C 391.402344 182.019531 390.8125 181.890625 390.164063 181.886719 C 389.605469 181.886719 389.105469 181.964844 388.65625 182.117188 C 388.207031 182.269531 387.8125 182.484375 387.472656 182.765625 C 387.140625 183.046875 386.859375 183.378906 386.636719 183.765625 L 386.59375 183.765625 L 386.59375 177.269531 L 384.734375 177.269531 Z M 386.59375 186.464844 C 386.59375 186.308594 386.605469 186.171875 386.621094 186.039063 C 386.644531 185.910156 386.667969 185.785156 386.699219 185.667969 C 386.832031 185.195313 387.042969 184.789063 387.328125 184.445313 C 387.613281 184.097656 387.949219 183.839844 388.332031 183.644531 C 388.714844 183.460938 389.121094 183.363281 389.542969 183.363281 C 390.050781 183.367188 390.496094 183.46875 390.886719 183.671875 C 391.269531 183.878906 391.59375 184.152344 391.855469 184.507813 C 392.113281 184.859375 392.3125 185.269531 392.441406 185.734375 C 392.574219 186.191406 392.640625 186.683594 392.640625 187.207031 C 392.640625 188.003906 392.515625 188.699219 392.269531 189.292969 C 392.023438 189.886719 391.664063 190.347656 391.199219 190.679688 C 390.734375 191.007813 390.167969 191.179688 389.5 191.183594 C 389.042969 191.179688 388.621094 191.085938 388.234375 190.902344 C 387.855469 190.714844 387.527344 190.460938 387.261719 190.132813 C 386.988281 189.800781 386.796875 189.417969 386.679688 188.980469 C 386.648438 188.875 386.625 188.765625 386.613281 188.648438 C 386.601563 188.53125 386.59375 188.417969 386.59375 188.296875 Z M 395.378906 182.101563 L 399.179688 191.632813 C 399.234375 191.75 399.273438 191.84375 399.296875 191.925781 C 399.320313 192.003906 399.332031 192.070313 399.332031 192.125 C 399.332031 192.175781 399.316406 192.242188 399.289063 192.316406 C 399.257813 192.390625 399.222656 192.476563 399.179688 192.570313 C 398.949219 193.054688 398.695313 193.472656 398.414063 193.824219 C 398.132813 194.183594 397.863281 194.460938 397.601563 194.667969 C 397.316406 194.902344 397.035156 195.09375 396.746094 195.25 C 396.457031 195.394531 396.191406 195.511719 395.953125 195.585938 L 396.425781 197.144531 C 396.585938 197.117188 396.785156 197.058594 397.023438 196.972656 C 397.261719 196.886719 397.527344 196.757813 397.820313 196.589844 C 398.113281 196.425781 398.414063 196.210938 398.734375 195.949219 C 399.050781 195.667969 399.351563 195.339844 399.636719 194.957031 C 399.925781 194.582031 400.203125 194.132813 400.480469 193.617188 C 400.757813 193.101563 401.042969 192.503906 401.339844 191.820313 C 401.632813 191.140625 401.945313 190.355469 402.28125 189.472656 L 405.101563 182.101563 L 403.113281 182.101563 L 401.0625 188.167969 C 400.933594 188.546875 400.816406 188.925781 400.707031 189.296875 C 400.597656 189.667969 400.496094 190.015625 400.398438 190.332031 L 400.355469 190.332031 C 400.300781 190.117188 400.234375 189.898438 400.160156 189.65625 C 400.085938 189.417969 400.007813 189.175781 399.925781 188.929688 C 399.84375 188.679688 399.757813 188.445313 399.671875 188.210938 L 397.429688 182.101563 Z M 395.378906 182.101563 "/>
</g>
</g>
</svg>
