<?xml version="1.0" encoding="iso-8859-1"?>
<!-- Generator: Adobe Illustrator 18.0.0, SVG Export Plug-In . SVG Version: 6.00 Build 0)  -->
<!DOCTYPE svg PUBLIC "-//W3C//DTD SVG 1.1//EN" "http://www.w3.org/Graphics/SVG/1.1/DTD/svg11.dtd">
<svg version="1.1" xmlns="http://www.w3.org/2000/svg" xmlns:xlink="http://www.w3.org/1999/xlink" x="0px" y="0px"
	 viewBox="0 0 677.177 194.247" style="enable-background:new 0 0 677.177 194.247;" xml:space="preserve">
<g id="Layer_5">
	<g>
		<path style="fill:#231F20;" d="M0,130.808h55.518c23.603,0,51.344-6.207,51.344-35.799c0-15.066-9.037-23.951-26.619-27.304
			v-0.343c14.735-4.611,23.246-13.301,23.246-28.892c0-21.272-18.314-31.389-42.894-31.389H0V130.808z M35.121,78.33H45.87
			c12.088,0,25.886,1.258,25.886,14.708c0,12.601-13.392,14.358-26.224,14.358H35.121V78.33z M35.121,30.481h10.217
			c11.69,0,23.026,1.076,23.026,12.426c0,10.441-11.916,13.094-23.431,13.094h-9.812V30.481z"/>
		<path style="fill:#231F20;" d="M213.431,93.933v-5.837c0-27.485-13.223-51.753-49.655-51.753
			c-30.571,0-52.673,17.718-52.673,48.199c0,30.487,24.751,48.406,57.226,48.406c12.64,0,25.107-1.79,36.042-5.857v-22.517
			c-10.192,5.143-20.76,7.089-30.004,7.089c-16.618,0-27.014-4.955-28.891-17.731H213.431z M145.095,75.852
			c0.759-10.636,6.592-19.313,18.876-19.313c13.583,0,18.865,8.677,18.865,19.313H145.095z"/>
		<path style="fill:#231F20;" d="M225.759,130.795h33.983V38.471h-33.983V130.795z M259.742,0h-33.983v23.399h33.983V0z"/>
		<path style="fill:#231F20;" d="M271.708,128.499c10,3.01,20.373,4.449,35.688,4.449c22.27,0,45.883-6.226,45.883-30.857
			c0-35.099-50.621-23.762-50.621-38.108c0-5.136,8.32-6.381,15.678-6.381c8.522,0,19.265,2.127,26.441,6.2l2.649-22.134
			c-10.973-4.093-22.851-5.325-34.56-5.325c-19.631,0-41.927,8.677-41.927,29.962c0,33.308,48.345,22.322,48.345,37.906
			c0,6.388-6.796,7.452-13.791,7.452c-12.257,0-23.97-3.191-31.904-6.369L271.708,128.499z"/>
		<path style="fill:#231F20;" d="M356.752,128.499c9.991,3.01,20.39,4.449,35.662,4.449c22.297,0,45.906-6.226,45.906-30.857
			c0-35.099-50.615-23.762-50.615-38.108c0-5.136,8.308-6.381,15.669-6.381c8.487,0,19.242,2.127,26.447,6.2l2.614-22.134
			c-10.941-4.093-22.816-5.325-34.541-5.325c-19.656,0-41.921,8.677-41.921,29.962c0,33.308,48.345,22.322,48.345,37.906
			c0,6.388-6.803,7.452-13.785,7.452c-12.296,0-23.976-3.191-31.904-6.369L356.752,128.499z"/>
		<path style="fill:#231F20;" d="M449.505,130.795h34.012V38.471h-34.012V130.795z M483.517,0h-34.012v23.399h34.012V0z"/>
		<path style="fill:#231F20;" d="M596.879,93.933v-5.837c0-27.485-13.22-51.753-49.693-51.753
			c-30.565,0-52.664,17.718-52.664,48.199c0,30.487,24.731,48.406,57.207,48.406c12.643,0,25.111-1.79,36.093-5.857v-22.517
			c-10.243,5.143-20.814,7.089-30.072,7.089c-16.586,0-26.975-4.955-28.866-17.731H596.879z M528.505,75.852
			c0.746-10.636,6.605-19.313,18.875-19.313c13.603,0,18.888,8.677,18.888,19.313H528.505z"/>
		<path style="fill:#231F20;" d="M677.177,37.394c-3.427-0.525-7.568-1.051-11.534-1.051c-14.735,0-23.237,7.452-29.099,19.125
			h-0.351V38.471H605.22v92.338h33.98V91.806c0-18.068,8.878-28.886,24.747-28.886c3.953,0,7.741,0,11.505,1.064L677.177,37.394z"/>
		<rect x="0.357" y="162.197" style="fill:#231F20;" width="675.594" height="32.05"/>
	</g>
</g>
<g id="Layer_1">
</g>
</svg>
