<svg enable-background="new 0 0 2500 768.3" viewBox="0 0 2500 768.3" xmlns="http://www.w3.org/2000/svg"><path d="m2500 768.3v-768.3h-2500v768.3z" fill="#febd18"/><path d="m107.6 107.6h2284.9v43.4h-2284.9zm0 509.3h2284.8v43.3h-2284.8zm1938.3-444.2h346.7v119.2h-94v302.3h-159.1v-302.3h-93.6zm-238.4 0v421.6h288.9v-125.7h-130v-295.9zm-325.3-.1h174.5l133.8 421.6h-155.5l-15.9-64.2h-97.5l-14.5 64.2h-162.3zm61.1 263.7h54.1l-26.4-122.8zm-144.9-263.7h-155.3l-43.3 205.9-47-205.9h-137.2l-44.3 205.9-42.3-205.9h-155.1l115.9 421.6h144l48.4-205.7 49.7 205.7h147.4zm-853.1 90.3h231.3v86.8h-111.9v36h97.5v86.8h-97.5v36h111.9v85.8h-231.3zm-437.6 331.3v-421.6h197.5c116.6 0 209.4 63.5 209.4 211.7 0 144.2-89.8 210-210.1 210h-196.8zm163.1-126.2c50 0 83.1-21 83.1-85.1 0-70.3-32.8-89.1-82.8-89.1h-12.8v174.2zm2049.2 91.1c0-19.8 16.1-34.4 35.1-34.4 18.8 0 34.9 14.6 34.9 34.4 0 20-16.1 34.6-34.9 34.6-19 .1-35.1-14.6-35.1-34.6zm35.1 28.9c15.6 0 28-12.2 28-28.9 0-16.3-12.3-28.7-28-28.7-15.8 0-28.1 12.3-28.1 28.7 0 16.7 12.3 28.9 28.1 28.9zm-6.7-24.4h5.7l7.5 12.7h8.6l-8.9-13.2c6-.7 10.1-4.4 10.1-11.7 0-6.1-4.8-10.6-14.4-10.6h-15.2v35.5h6.6zm0-5.9v-11.4h7.7c4.3 0 9.1.3 9.1 5.5 0 6-3.9 5.9-9.2 5.9z"/></svg>